<?xml version="1.0" encoding="UTF-8" standalone="no"?><!DOCTYPE svg PUBLIC "-//W3C//DTD SVG 1.1//EN" "http://www.w3.org/Graphics/SVG/1.1/DTD/svg11.dtd"><svg width="100%" height="100%" viewBox="0 0 8892 8892" version="1.1" xmlns="http://www.w3.org/2000/svg" xmlns:xlink="http://www.w3.org/1999/xlink" xml:space="preserve" xmlns:serif="http://www.serif.com/" style="fill-rule:evenodd;clip-rule:evenodd;stroke-linecap:round;stroke-linejoin:round;stroke-miterlimit:10;"><g id="Download"><path d="M2736.98,5835.75l-1000.87,0c-767.016,0 -1388.89,-621.7 -1388.89,-1388.89c-0,-753.3 532.987,-1366.67 1278.65,-1388.19l388.021,-0c-0,115.625 -51.563,203.991 -139.93,278.47c-301.737,254.342 -485.07,668.75 -485.07,1110.42c-0,753.475 599.829,1366.67 1348.09,1388.2Z" style="fill:none;fill-rule:nonzero;"/><path d="M5833.33,5835.79l1319.45,-0c767.046,-0 1388.89,-621.842 1388.89,-1388.89c-0,-767.1 -552.396,-1388.89 -1319.45,-1388.89c-0,-767.1 -621.838,-1388.89 -1388.89,-1388.89c-165.383,-0 -321.841,33.817 -468.958,86.892c-381.946,-472.846 -959.221,-781.338 -1614.38,-781.338c-1150.59,0 -2083.33,932.742 -2083.33,2083.33c-767.05,0 -1319.45,621.788 -1319.45,1388.89c-0,767.05 621.841,1388.89 1388.89,1388.89l1319.44,-0" style="fill:none;fill-rule:nonzero;stroke:#fff;stroke-width:694.46px;"/><path d="M5833.33,5835.79l1319.45,-0c767.046,-0 1388.89,-621.842 1388.89,-1388.89c-0,-767.1 -552.396,-1388.89 -1319.45,-1388.89c-0,-767.1 -621.838,-1388.89 -1388.89,-1388.89c-165.383,-0 -321.841,33.817 -468.958,86.892c-381.946,-472.846 -959.221,-781.338 -1614.38,-781.338c-1150.59,0 -2083.33,932.742 -2083.33,2083.33c-767.05,0 -1319.45,621.788 -1319.45,1388.89c-0,767.05 621.841,1388.89 1388.89,1388.89l1319.44,-0" style="fill:none;fill-rule:nonzero;stroke:#fff;stroke-width:694.46px;"/><path d="M4444.46,3752.47l0,4161.65" style="fill:none;fill-rule:nonzero;stroke:#fff;stroke-width:694.46px;"/><path d="M3402.78,7016.33l796.146,796.146c135.587,135.592 355.45,135.592 491.042,0l796.145,-796.146" style="fill:none;fill-rule:nonzero;stroke:#fff;stroke-width:694.46px;"/></g></svg>