<?xml version="1.0" encoding="UTF-8"?><svg id="Layer_2" xmlns="http://www.w3.org/2000/svg" width="109.0492" height="105.1231" viewBox="0 0 109.0492 105.1231"><defs><style>.cls-1,.cls-2,.cls-3{stroke-width:0px;}.cls-2{fill:#fff;}.cls-3{fill:#f2727f;}.cls-4{fill:none;stroke:#fff;stroke-miterlimit:10;stroke-width:4px;}</style></defs><g id="Layer_1-2"><circle class="cls-3" cx="39.0633" cy="39.0633" r="39.0633"/><circle class="cls-4" cx="39.0633" cy="39.0633" r="20.371"/><path class="cls-1" d="M71.2919,39.5389c-2.1594,0-4.1071.8063-5.6325,2.3318-1.527,1.5307-2.3328,3.4774-2.3328,5.6322v25.7359l-.4558-.6095c-1.6416-2.1642-3.9033-3.2995-6.553-3.2995-2.1471,0-4.0841.8234-5.6016,2.3812-1.4956,1.5353-2.2861,3.4667-2.2861,5.5852,0,1.7787.5464,3.3963,1.6243,4.8077l14.8801,19.84c1.5477,2.0772,3.748,3.1792,6.3575,3.1792h27.8519c1.223,0,2.3848-.3958,3.3598-1.1445,1.001-.7758,1.6761-1.8181,1.9631-3.0225l3.5613-14.2429c.6776-2.7121,1.0211-5.4891,1.0211-8.2546v-8.4178c0-1.8113-.654-3.4706-1.8913-4.7985-1.2941-1.3871-2.9648-2.1197-4.8329-2.1197-1.04,0-2.0208.2198-2.9101.6461-.3044-.5436-.6805-1.0524-1.1255-1.5193-1.395-1.4589-3.2176-2.2283-5.2741-2.2283-1.5555,0-2.9955.4603-4.2257,1.3415-.1866-.2492-.3887-.4902-.6058-.7223-1.5229-1.6243-3.5004-2.4818-5.7206-2.4818-1.1378,0-2.2169.2242-3.2061.6595v-11.0817c0-2.168-.7757-4.144-2.2433-5.7143-1.5265-1.6262-3.5035-2.4833-5.7218-2.4833h0Z"/><path class="cls-2" d="M71.2919,42.5389c-1.3716,0-2.5416.4836-3.5111,1.4531-.9693.9717-1.4542,2.1406-1.4542,3.5109v34.7573l-5.8583-7.8343c-1.0605-1.3981-2.4439-2.0961-4.1505-2.0961-1.3451,0-2.4958.4923-3.4527,1.4746-.9567.9821-1.435,2.1467-1.435,3.4918,0,1.1116.3363,2.1065,1.0086,2.987l14.8957,19.8608c.9832,1.3195,2.3016,1.9792,3.9576,1.9792h27.8519c.5687,0,1.0799-.1762,1.5328-.524.4518-.3502.7425-.7955.872-1.3386l3.5691-14.275c.6206-2.4843.9315-4.9918.9315-7.5269v-8.4178c0-1.0586-.3628-1.977-1.0862-2.7534-.7245-.7766-1.6038-1.1648-2.6381-1.1648-1.0353,0-1.9145.3628-2.6381,1.0862-.7245.7256-1.0862,1.6038-1.0862,2.6392h-1.2408v-2.3676c0-1.2411-.4149-2.2931-1.2421-3.161-.8274-.8655-1.8617-1.2982-3.1025-1.2982-1.1902,0-2.2117.4264-3.0645,1.2793-.8539.8526-1.2802,1.8752-1.2802,3.0654v2.4821h-1.2421v-3.492c0-1.4211-.4783-2.6431-1.4353-3.6658-.9567-1.0203-2.133-1.5315-3.53-1.5315-1.3703,0-2.5403.4836-3.5098,1.4552-.9706.9695-1.4552,2.1384-1.4552,3.5087v3.7253h-1.2411v-22.1115c0-1.4214-.4794-2.6433-1.435-3.6658-.958-1.0206-2.1343-1.5317-3.53-1.5317Z"/></g></svg>