<?xml version="1.0" encoding="utf-8"?>
<!-- Generator: Adobe Illustrator 26.2.1, SVG Export Plug-In . SVG Version: 6.00 Build 0)  -->
<svg version="1.1" id="Layer_1" xmlns="http://www.w3.org/2000/svg" xmlns:xlink="http://www.w3.org/1999/xlink" x="0px" y="0px"
	 viewBox="0 0 324.8 91.5" style="enable-background:new 0 0 324.8 91.5;" xml:space="preserve">
<style type="text/css">
	.st0{fill:none;stroke:#f2727f;stroke-width:5;stroke-linecap:round;stroke-linejoin:round;}
	.st1{fill:#FFFFFF;}
</style>
<g id="Layer_2_00000104692223500558974380000005528885981472915629_">
	<g id="Layer_4">
		<g>
			<path class="st0" d="M96.4,44.7L2.5,44.4 M41.3,5.6L2.5,44.4l38.8,38.8"/>
			<path class="st0" d="M322.3,44.4h-85.6 M283.5,83.2l38.8-38.8L283.5,5.6"/>
			<g>
				<path d="M149.2,50v-1.9c0-11,0-21.9,0-32.9c0-5.8,4.1-9.9,9.5-9.5c1,0.1,2.1,0.3,3.1,0.6c1.6-3.9,4.3-6.4,8.7-6.3
					c4.2,0.1,6.9,2.5,8.4,6.3c6.5-1.4,9.8,0.1,12.4,6c0.8-0.2,1.7-0.4,2.5-0.5c4.8-0.6,9.2,2.8,9.8,7.7c0,0.3,0.1,0.7,0.1,1
					c0.1,2.3,0,4.6,0,7c0,13.4,0,26.8,0,40.2c-0.1,13.7-10.2,23.8-23.9,23.8c-5.7,0-11.4,0-17.2,0c-1.4,0-2.7-0.1-4.1-0.3
					c-6.1-0.9-11.5-4.5-14.8-9.7c-5.4-8.4-10.7-16.7-16-25.2c-3.2-4.8-2-11.3,2.8-14.5c0.1,0,0.1-0.1,0.2-0.1
					c4.9-3.2,11.1-1.8,14.6,3.2c1.2,1.7,2.3,3.4,3.5,5.2L149.2,50z"/>
				<path class="st1" d="M154.6,67.6l-0.3,0.1c-0.3-0.5-0.6-0.9-1-1.4c-4.1-6.1-8.3-12.2-12.4-18.4c-0.8-1.4-2.2-2.4-3.9-2.6
					c-1.9-0.3-3.9,0.6-4.9,2.3c-1.2,1.7-1.1,4,0.1,5.7c5.4,8.4,10.6,16.9,16.1,25.3c2.9,4.7,8.1,7.4,13.6,7.4
					c6.1,0.1,12.2,0.1,18.2,0c10-0.1,17.9-7.6,18.1-17.7c0.2-15.8,0.1-31.7,0-47.5c0-0.8-0.2-1.6-0.7-2.3c-0.8-1.3-2.3-1.9-3.8-1.3
					c-1.6,0.5-2.7,2-2.5,3.7c0,5.8,0,11.7,0,17.5v2H186v-2.1c0-7.8,0-15.6,0-23.4c0-2.5-1.6-4.1-3.8-3.9c-1.9,0.2-3.1,1.7-3.1,3.9
					c0,7.9,0,15.7,0,23.6c0,0.6-0.1,1.3-0.1,1.9h-5.3v-2c0-8.9,0-17.9,0-26.8c0-1.1,0.1-2.1,0-3.2c-0.2-1.9-1.8-3.3-3.7-3.1
					c-1.7,0.1-3,1.5-3.1,3.1c-0.1,0.5,0,1.1,0,1.6c0,9.5,0,18.9,0,28.4v2h-5.4v-2.1c0-7.5,0-15,0-22.5c0-3.2-1.2-4.8-3.5-4.8
					s-3.4,1.6-3.4,4.9c0,16.6,0,33.2,0,49.9L154.6,67.6z"/>
			</g>
		</g>
	</g>
</g>
</svg>
