<?xml version="1.0" encoding="UTF-8"?><svg id="Layer_2" xmlns="http://www.w3.org/2000/svg" width="83.5969" height="151.4037" viewBox="0 0 83.5969 151.4037"><defs><style>.cls-1{fill:#fff;stroke-width:0px;}</style></defs><g id="Object"><path class="cls-1" d="m75.726,0H7.871C3.5303.0003.0003,3.5303,0,7.871v135.6618c.0003,4.3406,3.5303,7.8706,7.871,7.8709h67.855c4.3407-.0003,7.8706-3.5303,7.8709-7.8709V7.871c-.0003-4.3407-3.5302-7.8707-7.8709-7.871Zm0,148.9689H7.871c-1.4991-.0001-2.857-.6093-3.842-1.5941-.9849-.985-1.5941-2.343-1.5942-3.842v-8.1144h78.7273v8.1144c0,1.499-.6093,2.857-1.5941,3.842-.985.9848-2.3429,1.594-3.842,1.5941ZM7.871,2.4348h67.855c1.4991,0,2.857.6093,3.842,1.5941.9848.985,1.594,2.343,1.5941,3.8421v4.4806H2.4348v-4.4806c.0001-1.4991.6093-2.8571,1.5942-3.8421.985-.9848,2.3429-1.594,3.842-1.5941Zm73.2911,12.3515v118.1972H2.4348S2.4348,14.7863,2.4348,14.7863h78.7273Z"/><path class="cls-1" d="m47.068,138.0701h-10.5389c-1.8651.0003-3.381,1.5164-3.3813,3.3817.0003,1.8649,1.5162,3.3809,3.3813,3.3812h10.5389c1.8649-.0003,3.3809-1.5163,3.3812-3.3812-.0003-1.8653-1.5163-3.3814-3.3812-3.3817Zm0,4.3281h-10.5389c-.5213-.001-.9455-.4252-.9465-.9464.001-.5217.4252-.9459.9465-.9469h10.5389c.5211.001.9454.4252.9464.9469-.001.5212-.4253.9454-.9464.9464Z"/></g></svg>