<?xml version="1.0" encoding="UTF-8"?><svg id="Layer_2" xmlns="http://www.w3.org/2000/svg" width="318.9737" height="248.7891" viewBox="0 0 318.9737 248.7891"><defs><style>.cls-1{fill:#fff;stroke-width:0px;}</style></defs><g id="Object"><path class="cls-1" d="m310.0458,207.4616c4.9236-.0003,8.9276-4.0045,8.9279-8.9279V8.928c-.0003-4.9234-4.0043-8.9276-8.9279-8.928H8.9279C4.0043.0004.0003,4.0046,0,8.928v189.6057c.0003,4.9234,4.0043,8.9276,8.9279,8.9279h118.7326c-.1335,12.137-2.2562,19.4606-4.3755,23.7657-1.0948,2.2239-2.1886,3.6432-3.009,4.5072-.4102.4321-.7522.7253-.992.9107-.0655.0507-.1216.0918-.1712.127h-15.1406c-1.9872.0013-4.1131.79-5.7563,2.0894-1.6408,1.2984-2.8066,3.1221-2.8074,5.1965v3.5136c.0001.6725.5449,1.2173,1.2174,1.2174h125.7223c.6725-.0001,1.2173-.5449,1.2174-1.2174v-3.5136c-.0009-2.0744-1.1667-3.8981-2.8075-5.1965-1.6431-1.2994-3.7691-2.0881-5.7562-2.0894h-15.1493c-.6001-.4105-2.4117-1.8716-4.2187-5.5613-2.1012-4.2911-4.1894-11.5966-4.3205-23.7493h118.7324Zm-181.161-2.4348H8.9279c-1.7904-.0001-3.4125-.7279-4.589-1.904-1.1762-1.1765-1.904-2.7986-1.9041-4.5891v-12.4922h314.104v12.4922c0,1.7905-.7278,3.4126-1.9039,4.5891-1.1764,1.1761-2.7986,1.9039-4.5891,1.904h-181.161ZM8.9279,2.4349h301.1179c1.7905.0001,3.4127.7278,4.5891,1.904,1.1761,1.1765,1.9039,2.7986,1.9039,4.5891v5.9931H2.4348v-5.9931c0-1.7905.7279-3.4126,1.9041-4.5891,1.1765-1.1762,2.7986-1.9039,4.589-1.904Zm307.6109,181.1717H2.4348S2.4348,17.356,2.4348,17.356h314.104v166.2506Zm-216.6793,57.066c1.1919-.8988,2.7426-1.4671,4.1127-1.4655h111.0297c1.37-.0016,2.9207.5667,4.1126,1.4655,1.1956.8991,2.0189,2.1156,2.0162,3.3855v2.2961h-123.2874s0-2.2961,0-2.2961c-.0027-1.2699.8206-2.4864,2.0162-3.3855Zm22.78-3.9004c2.9324-3.445,7.2655-11.5337,7.455-29.3106h58.7851c.1894,17.7769,4.5226,25.8656,7.4546,29.3106h-73.6947Z"/><path class="cls-1" d="m168.27,191.4696h-17.5659c-2.2013.0003-3.9908,1.7897-3.9912,3.9909.0004,2.2012,1.7899,3.9906,3.9912,3.991h17.5659c2.2009-.0004,3.9904-1.7898,3.9907-3.991-.0003-2.2012-1.7898-3.9906-3.9907-3.9909Zm1.0995,5.0907c-.2825.2822-.6703.4562-1.0995.4563h-17.5659c-.4295-.0001-.8174-.1741-1.0999-.4563-.2822-.2825-.4563-.6704-.4564-1.0998,0-.4293.1742-.8172.4564-1.0997.2825-.2822.6704-.4563,1.0999-.4564h17.5659c.4292,0,.817.1742,1.0995.4564.2822.2825.4563.6704.4564,1.0997,0,.4294-.1742.8173-.4564,1.0998Z"/></g></svg>