<svg xmlns="http://www.w3.org/2000/svg" viewBox="0 0 14.61 19.18"><defs><style>.cls-1{fill:#fff;}</style></defs><g id="Layer_2" data-name="Layer 2"><g id="Layer_1-2" data-name="Layer 1"><path class="cls-1" d="M7.31,0a5.46,5.46,0,0,1,5.48,5.43c0,4.08-5.48,10.1-5.48,10.1s-5.48-6-5.48-10.1A5.45,5.45,0,0,1,7.31,0m0,3.65A1.83,1.83,0,1,0,9.13,5.48,1.83,1.83,0,0,0,7.31,3.65m7.3,11.88c0,2-3.27,3.65-7.3,3.65S0,17.54,0,15.53c0-1.18,1.11-2.23,2.84-2.9l.58.83c-1,.41-1.59,1-1.59,1.61,0,1.26,2.45,2.28,5.48,2.28s5.48-1,5.48-2.28c0-.63-.62-1.2-1.6-1.61l.58-.83C13.5,13.3,14.61,14.35,14.61,15.53Z"/></g></g></svg>